<?xml version="1.0" encoding="UTF-8"?>
<svg version="1.1" xmlns="http://www.w3.org/2000/svg" width="57" height="57">
<path d="M0 0 C18.81 0 37.62 0 57 0 C57 18.81 57 37.62 57 57 C38.19 57 19.38 57 0 57 C0 38.19 0 19.38 0 0 Z " fill="#F89507" transform="translate(0,0)"/>
<path d="M0 0 C8.25 0 16.5 0 25 0 C25 3.3 25 6.6 25 10 C16.75 10 8.5 10 0 10 C0 6.7 0 3.4 0 0 Z " fill="#FF2600" transform="translate(32,22)"/>
<path d="M0 0 C5.94 0 11.88 0 18 0 C18 3.63 18 7.26 18 11 C16.35 11.66 14.7 12.32 13 13 C12.34 13.66 11.68 14.32 11 15 C8.3984375 15.1953125 8.3984375 15.1953125 5.375 15.125 C3.87066406 15.09792969 3.87066406 15.09792969 2.3359375 15.0703125 C1.56507812 15.04710937 0.79421875 15.02390625 0 15 C0.42152344 14.51789062 0.84304687 14.03578125 1.27734375 13.5390625 C1.82519531 12.90742188 2.37304688 12.27578125 2.9375 11.625 C3.48277344 10.99851562 4.02804688 10.37203125 4.58984375 9.7265625 C6.06958624 8.04367666 6.06958624 8.04367666 7 6 C4.69 6.66 2.38 7.32 0 8 C0 5.36 0 2.72 0 0 Z " fill="#FAFCFB" transform="translate(32,7)"/>
<path d="M0 0 C6.93 0 13.86 0 21 0 C21 3.3 21 6.6 21 10 C14.07 10 7.14 10 0 10 C0 6.7 0 3.4 0 0 Z " fill="#FF2600" transform="translate(0,22)"/>
<path d="M0 0 C0.33 0 0.66 0 1 0 C1 5.94 1 11.88 1 18 C-4.94 18 -10.88 18 -17 18 C-17 16.35 -17 14.7 -17 13 C-15.63875 12.443125 -15.63875 12.443125 -14.25 11.875 C-10.51552849 9.72049721 -9.33965982 7.54722618 -7 4 C-4.375 2.75 -4.375 2.75 -2 2 C-1.34 1.34 -0.68 0.68 0 0 Z " fill="#F8FCFA" transform="translate(49,32)"/>
<path d="M0 0 C4.62 0 9.24 0 14 0 C14 1.98 14 3.96 14 6 C13.34 6 12.68 6 12 6 C12.33 6.7425 12.66 7.485 13 8.25 C14 11 14 11 14 15 C7.43615385 15.37153846 7.43615385 15.37153846 5.3125 13.5625 C4.879375 13.046875 4.44625 12.53125 4 12 C2.68 11.67 1.36 11.34 0 11 C0 7.37 0 3.74 0 0 Z " fill="#F9FCFB" transform="translate(7,7)"/>
<path d="M0 0 C1.32 0.99 2.64 1.98 4 3 C4.825 3.268125 5.65 3.53625 6.5 3.8125 C9.92946473 5.44149575 11.08975326 7.79351441 13 11 C13.33 11.33 13.66 11.66 14 12 C14 13.98 14 15.96 14 18 C9.38 18 4.76 18 0 18 C0 12.06 0 6.12 0 0 Z " fill="#F9FCFA" transform="translate(7,32)"/>
<path d="M0 0 C2.91765891 -0.10806144 5.83131125 -0.18732877 8.75 -0.25 C9.9875 -0.30027344 9.9875 -0.30027344 11.25 -0.3515625 C14.98291707 -0.41177084 17.3110291 -0.41170213 20.5625 1.53125 C22.53713189 4.92246564 22.43679119 7.94951762 22.25 11.75 C22.23195313 12.44738281 22.21390625 13.14476562 22.1953125 13.86328125 C22.14838554 15.57611539 22.07664605 17.28823824 22 19 C18.37 19 14.74 19 11 19 C11.99 17.68 12.98 16.36 14 15 C15.32 15 16.64 15 18 15 C18 11.37 18 7.74 18 4 C12.06 4 6.12 4 0 4 C0 2.68 0 1.36 0 0 Z " fill="#23A770" transform="translate(32,3)"/>
<path d="M0 0 C1.32 0 2.64 0 4 0 C4.10806144 2.91765891 4.18732877 5.83131125 4.25 8.75 C4.30027344 9.9875 4.30027344 9.9875 4.3515625 11.25 C4.41080708 14.9231642 4.38223952 17.3186165 2.5625 20.5625 C-1.32323176 22.74230074 -4.87919051 22.42756414 -9.25 22.25 C-10.09046875 22.23195313 -10.9309375 22.21390625 -11.796875 22.1953125 C-13.86507395 22.14830798 -15.93268441 22.07656724 -18 22 C-18 20.68 -18 19.36 -18 18 C-12.06 18 -6.12 18 0 18 C0 12.06 0 6.12 0 0 Z " fill="#26A972" transform="translate(50,32)"/>
<path d="M0 0 C0.99 0 1.98 0 3 0 C3 8.25 3 16.5 3 25 C-5.25 25 -13.5 25 -22 25 C-22 24.01 -22 23.02 -22 22 C-20.73542969 21.96261719 -19.47085938 21.92523438 -18.16796875 21.88671875 C-16.5077827 21.82106167 -14.84762778 21.75461424 -13.1875 21.6875 C-12.35412109 21.66494141 -11.52074219 21.64238281 -10.66210938 21.61914062 C-9.85966797 21.58369141 -9.05722656 21.54824219 -8.23046875 21.51171875 C-7.49207764 21.48553467 -6.75368652 21.45935059 -5.99291992 21.43237305 C-3.43405794 20.8772163 -2.53907298 20.10347878 -1 18 C-0.5005539 15.98207174 -0.5005539 15.98207174 -0.48828125 13.76953125 C-0.45283203 12.96708984 -0.41738281 12.16464844 -0.38085938 11.33789062 C-0.35830078 10.50451172 -0.33574219 9.67113281 -0.3125 8.8125 C-0.27833984 7.96751953 -0.24417969 7.12253906 -0.20898438 6.25195312 C-0.12658529 4.16843351 -0.06161355 2.08423784 0 0 Z " fill="#FEFEFE" transform="translate(54,32)"/>
<path d="M0 0 C1.26328125 0.03609375 2.5265625 0.0721875 3.828125 0.109375 C5.27445313 0.17898438 5.27445313 0.17898438 6.75 0.25 C6.75 1.57 6.75 2.89 6.75 4.25 C2.13 4.25 -2.49 4.25 -7.25 4.25 C-7.25 7.88 -7.25 11.51 -7.25 15.25 C-5.6 15.58 -3.95 15.91 -2.25 16.25 C-1.59 17.24 -0.93 18.23 -0.25 19.25 C-3.88 19.25 -7.51 19.25 -11.25 19.25 C-11.35826289 16.8321288 -11.43739789 14.41912444 -11.5 12 C-11.53351562 11.31808594 -11.56703125 10.63617188 -11.6015625 9.93359375 C-11.66543271 6.6442779 -11.46129411 4.58384469 -9.6875 1.78125 C-6.33405238 -0.32540299 -3.92607672 -0.14541025 0 0 Z " fill="#22A770" transform="translate(14.25,2.75)"/>
<path d="M0 0 C8.25 0 16.5 0 25 0 C25 7.26 25 14.52 25 22 C24.01 22 23.02 22 22 22 C21.96261719 20.95199219 21.92523438 19.90398438 21.88671875 18.82421875 C21.82105485 17.44527695 21.75460765 16.06637229 21.6875 14.6875 C21.66494141 13.99720703 21.64238281 13.30691406 21.61914062 12.59570312 C21.46139736 8.69818462 21.46139736 8.69818462 19.73242188 5.30859375 C17.61120693 3.70632316 16.40748981 3.58182588 13.76953125 3.48828125 C12.56586914 3.43510742 12.56586914 3.43510742 11.33789062 3.38085938 C10.50451172 3.35830078 9.67113281 3.33574219 8.8125 3.3125 C7.5450293 3.26125977 7.5450293 3.26125977 6.25195312 3.20898438 C4.16843351 3.12658529 2.08423784 3.06161355 0 3 C0 2.01 0 1.02 0 0 Z " fill="#FDFEFE" transform="translate(32,0)"/>
<path d="M0 0 C0.99 0 1.98 0 3 0 C3.03738281 1.26457031 3.07476562 2.52914062 3.11328125 3.83203125 C3.17893833 5.4922173 3.24538576 7.15237222 3.3125 8.8125 C3.33505859 9.64587891 3.35761719 10.47925781 3.38085938 11.33789062 C3.41630859 12.14033203 3.45175781 12.94277344 3.48828125 13.76953125 C3.51446533 14.50792236 3.54064941 15.24631348 3.56762695 16.00708008 C4.11738289 18.54104832 4.94587743 19.44804942 7 21 C10.4223884 21.58218332 10.4223884 21.58218332 14.1875 21.6875 C15.45980469 21.75324219 16.73210938 21.81898437 18.04296875 21.88671875 C19.01878906 21.92410156 19.99460937 21.96148437 21 22 C21 22.99 21 23.98 21 25 C14.07 25 7.14 25 0 25 C0 16.75 0 8.5 0 0 Z " fill="#FEFEFE" transform="translate(0,32)"/>
<path d="M0 0 C1.32 0 2.64 0 4 0 C4 5.94 4 11.88 4 18 C8.62 18 13.24 18 18 18 C18 19.32 18 20.64 18 22 C15.75106046 22.10823773 13.50062425 22.18569645 11.25 22.25 C9.37054687 22.31960937 9.37054687 22.31960937 7.453125 22.390625 C4 22 4 22 1.5625 20.5625 C-0.79437664 16.69722232 -0.42996121 13.17981441 -0.25 8.75 C-0.23195312 7.90953125 -0.21390625 7.0690625 -0.1953125 6.203125 C-0.14830798 4.13492605 -0.07656724 2.06731559 0 0 Z " fill="#26A972" transform="translate(3,32)"/>
<path d="M0 0 C6.93 0 13.86 0 21 0 C21 0.99 21 1.98 21 3 C20.02417969 3.03738281 19.04835938 3.07476562 18.04296875 3.11328125 C16.13451172 3.21189453 16.13451172 3.21189453 14.1875 3.3125 C12.29064453 3.39951172 12.29064453 3.39951172 10.35546875 3.48828125 C7.13456805 3.77941449 7.13456805 3.77941449 5.09375 5.0625 C3.3773652 8.10295308 3.42391937 11.27806719 3.3125 14.6875 C3.27833984 15.38939453 3.24417969 16.09128906 3.20898438 16.81445312 C3.12670053 18.54241387 3.0616676 20.27118072 3 22 C2.01 22 1.02 22 0 22 C0 14.74 0 7.48 0 0 Z " fill="#FDFEFE" transform="translate(0,0)"/>
<path d="M0 0 C3.3 0 6.6 0 10 0 C7 4 7 4 5.0625 4.375 C1.75041134 5.37866323 0.79065099 8.16961618 -1 11 C-4 13 -4 13 -7 13 C-6 10 -6 10 -3.5 7.625 C-0.90750895 4.9028844 -0.31377499 3.66070817 0 0 Z " fill="#12A165" transform="translate(39,32)"/>
<path d="M0 0 C3.3 0 6.6 0 10 0 C11.17076699 3.98060777 12.25749403 7.91621717 13 12 C8.125 7.25 8.125 7.25 7 5 C6.195625 4.690625 5.39125 4.38125 4.5625 4.0625 C2 3 2 3 0 0 Z " fill="#12A166" transform="translate(8,32)"/>
<path d="M0 0 C-1.01176437 3.40320742 -1.64843582 4.75725331 -4.625 6.8125 C-5.40875 7.204375 -6.1925 7.59625 -7 8 C-7.1875 5.125 -7.1875 5.125 -7 2 C-4 0 -4 0 0 0 Z " fill="#19A36A" transform="translate(39,13)"/>
<path d="M0 0 C1.98 0 3.96 0 6 0 C5.4409112 3.24271506 4.5867822 4.93057424 2 7 C1.34 7 0.68 7 0 7 C0 4.69 0 2.38 0 0 Z " fill="#14A167" transform="translate(32,32)"/>
<path d="M0 0 C0.33 0 0.66 0 1 0 C0.63076923 6.4 0.63076923 6.4 -2.5625 9.4375 C-3.7690625 10.2109375 -3.7690625 10.2109375 -5 11 C-5.33 9.68 -5.66 8.36 -6 7 C-5.195625 6.401875 -4.39125 5.80375 -3.5625 5.1875 C-0.77672016 3.19052724 -0.77672016 3.19052724 0 0 Z " fill="#E7F5EF" transform="translate(38,32)"/>
</svg>
